# xmcd CD database file
#
# Track frame offsets:
#	150
#	23440
#	50467
#	74260
#	97649
#	121505
#	142357
#	165459
#	191932
#	216947
#
# Disc length: 3193 seconds
#
# Revision: 0
# Processed by: cddbd v1.5.1PL2 Copyright (c) Steve Scherf et al.
# Submitted via: CDex 1.51
#
DISCID=850c770a
DTITLE=Eddie Landsberg - Man With A Groove
DYEAR=2002
DGENRE=Jazz
TTITLE0=Cool Blues
TTITLE1=Funky Modal
TTITLE2=Days Of Wine And Roses
TTITLE3=Spiderman
TTITLE4=Sugar
TTITLE5=Groovin' At The Post
TTITLE6=Eddie's Delight
TTITLE7=Aneby Special
TTITLE8=More
TTITLE9=Something Different
EXTD=YEAR: 2002
EXTT0=
EXTT1=
EXTT2=
EXTT3=
EXTT4=
EXTT5=
EXTT6=
EXTT7=
EXTT8=
EXTT9=
PLAYORDER=
